<svg xmlns="http://www.w3.org/2000/svg" version="1.1" xmlns:xlink="http://www.w3.org/1999/xlink" xmlns:svgjs="http://svgjs.dev/svgjs" width="128" height="128" viewBox="0 0 128 128"><g transform="matrix(0.4951923076923077,0,0,0.4951923076923077,32.311388742472,12.333870967741937)"><svg viewBox="0 0 95 155" data-background-color="#ffffff" preserveAspectRatio="xMidYMid meet" height="208" width="128" xmlns="http://www.w3.org/2000/svg" xmlns:xlink="http://www.w3.org/1999/xlink"><g id="tight-bounds" transform="matrix(1,0,0,1,-0.005540166204994534,0.25)"><svg viewBox="0 0 95.01108033240997 154.5" height="154.5" width="95.01108033240997"><g><svg viewBox="0 0 95.01108033240997 154.5" height="154.5" width="95.01108033240997"><g><svg viewBox="0 0 95.01108033240997 154.5" height="154.5" width="95.01108033240997"><g id="textblocktransform"><svg viewBox="0 0 95.01108033240997 154.5" height="154.5" width="95.01108033240997" id="textblock"><g><svg viewBox="0 0 95.01108033240997 154.5" height="154.5" width="95.01108033240997"><g transform="matrix(1,0,0,1,0,0)"><svg width="95.01108033240997" viewBox="1.85 -35.5 22.2 36.1" height="154.5" data-palette-color="#020202"><path d="M13.05 0.6L13.05 0.6Q9.3 0.6 6.5-0.98 3.7-2.55 1.85-5.35L1.85-5.35 4.75-7.75Q6.35-5.4 8.35-4.13 10.35-2.85 13.05-2.85L13.05-2.85Q20.15-2.85 20.15-9.5L20.15-9.5Q20.15-12.2 18.85-13.6 17.55-15 14.35-15.8L14.35-15.8 11.75-16.45Q7.15-17.6 4.98-19.83 2.8-22.05 2.8-26.1L2.8-26.1Q2.8-30.75 5.7-33.13 8.6-35.5 13.4-35.5L13.4-35.5Q17.05-35.5 19.53-34.15 22-32.8 23.85-29.9L23.85-29.9 20.9-27.8Q19.55-29.9 17.82-30.98 16.1-32.05 13.25-32.05L13.25-32.05Q10.05-32.05 8.38-30.65 6.7-29.25 6.7-26.1L6.7-26.1Q6.7-23.55 8.08-22.25 9.45-20.95 12.5-20.2L12.5-20.2 15.1-19.55Q17.55-18.95 19.25-18.13 20.95-17.3 22.03-16.1 23.1-14.9 23.58-13.28 24.05-11.65 24.05-9.5L24.05-9.5Q24.05-4.55 21.13-1.98 18.2 0.6 13.05 0.6Z" opacity="1" transform="matrix(1,0,0,1,0,0)" fill="#ffffff" class="wordmark-text-0" data-fill-palette-color="primary" id="text-0"></path></svg></g></svg></g></svg></g></svg></g></svg></g><defs></defs></svg><rect width="95.01108033240997" height="154.5" fill="none" stroke="none" visibility="hidden"></rect></g></svg></g></svg>